<?xml version="1.0" encoding="UTF-8" standalone="no"?>
<!DOCTYPE svg PUBLIC "-//W3C//DTD SVG 1.1//EN" "http://www.w3.org/Graphics/SVG/1.1/DTD/svg11.dtd">
<svg width="100%" height="100%" viewBox="0 0 64 64" version="1.1" xmlns="http://www.w3.org/2000/svg" xmlns:xlink="http://www.w3.org/1999/xlink" xml:space="preserve" xmlns:serif="http://www.serif.com/" style="fill-rule:evenodd;clip-rule:evenodd;">
    <path d="M41.422,62.588C38.445,63.506 35.28,64 32,64C14.339,64 0,49.661 0,32C0,14.339 14.339,0 32,0C49.661,0 64,14.339 64,32C64,35.28 63.506,38.445 62.588,41.422C60.077,35.869 54.487,32 48,32C39.169,32 32,39.169 32,48C32,54.487 35.869,60.077 41.422,62.588Z" style="fill:rgb(129,70,37);"/>
    <path d="M30.807,30.38C30.771,30.273 30.747,30.164 30.728,30.054C30.719,30.003 30.709,29.952 30.697,29.902L30.614,29.575C31.113,28.847 33.499,25.052 30.784,22.617C27.771,19.913 24.251,23.457 24.251,23.457L24.262,23.472C22.68,23.009 20.964,22.955 19.295,23.456L19.295,23.456C19.274,23.436 15.766,19.921 12.762,22.617C9.757,25.313 13.002,29.675 13.019,29.698L12.938,30.012C12.613,31.878 10.4,32.455 10.4,35.706C10.4,38.958 12.715,41.632 17.44,41.632L19.38,41.632C19.388,41.644 20.187,42.734 21.826,42.733C23.348,42.732 24.353,41.641 24.362,41.632L26.212,41.632C30.937,41.632 33.252,39.02 33.252,35.706C33.252,32.678 31.333,31.97 30.807,30.38L30.807,30.38ZM37.401,36.018C35.95,34.9 36.192,32.736 36.192,32.736L36.192,32.199C36.192,32.199 35.826,28.927 38.691,28.351L38.691,25.461C35.75,24.925 36.123,21.6 36.123,21.6C36.123,21.6 37.676,21.6 37.669,21.6C37.669,23.544 38.339,23.871 38.565,23.926C38.602,23.935 38.638,23.909 38.638,23.872L38.638,23.252C38.638,22.91 38.865,22.722 39.091,22.62C39.378,22.491 39.711,22.491 39.998,22.62C40.224,22.722 40.451,22.91 40.451,23.252L40.451,23.872C40.451,23.908 40.486,23.936 40.523,23.927C40.747,23.873 41.42,23.548 41.42,21.6C41.413,21.6 42.966,21.6 42.966,21.6C42.966,21.6 43.326,24.804 40.557,25.429L40.557,28.355C43.386,28.938 43.04,32.163 43.036,32.198C43.153,32.198 43.248,32.29 43.248,32.402L43.248,32.532C43.248,32.645 43.153,32.736 43.036,32.736C43.036,32.736 43.038,32.753 43.04,32.785C42.5,32.961 41.973,33.165 41.46,33.395C41.479,33.199 41.49,32.98 41.49,32.736L41.3,32.736C41.184,32.736 41.089,32.645 41.089,32.532L41.089,32.402C41.089,32.29 41.184,32.199 41.3,32.199L41.49,32.199C41.49,30.255 40.819,29.928 40.594,29.872C40.557,29.863 40.521,29.89 40.521,29.927L40.521,30.546C40.521,30.889 40.294,31.077 40.068,31.179C39.781,31.308 39.447,31.308 39.161,31.179C38.934,31.077 38.708,30.889 38.708,30.546L38.708,29.927C38.708,29.891 38.672,29.863 38.636,29.872C38.412,29.926 37.739,30.251 37.739,32.199L37.739,32.736C37.739,34.594 38.351,34.975 38.602,35.053C38.186,35.356 37.785,35.678 37.401,36.018ZM38.708,34.977L38.708,34.388C38.708,34.046 38.934,33.858 39.161,33.756C39.447,33.627 39.781,33.627 40.068,33.756C40.168,33.801 40.268,33.863 40.348,33.947C39.78,34.258 39.232,34.602 38.708,34.977ZM49.001,32.031L49.001,31.041C46.182,30.441 46.545,27.202 46.545,27.202L46.545,26.664C46.545,26.664 46.182,23.426 49,22.826L49,21.6L51.069,21.6L51.069,22.857C53.74,23.531 53.389,26.664 53.389,26.664L53.389,26.664C53.505,26.664 53.6,26.756 53.6,26.868L53.6,26.998C53.6,27.11 53.505,27.202 53.389,27.202C53.389,27.202 53.752,30.441 50.933,31.041L50.964,31.041L50.964,32.275C50.322,32.154 49.667,32.072 49.001,32.031ZM51.653,27.202L51.842,27.202C51.842,29.149 51.169,29.474 50.945,29.528C50.909,29.537 50.873,29.51 50.873,29.474L50.873,28.854C50.873,28.511 50.647,28.324 50.42,28.222C50.134,28.093 49.8,28.093 49.514,28.222C49.287,28.324 49.06,28.511 49.06,28.854L49.06,29.474C49.06,29.51 49.024,29.537 48.987,29.528C48.762,29.473 48.092,29.146 48.092,27.202L48.092,26.664C48.092,24.717 48.764,24.392 48.989,24.338C49.025,24.329 49.06,24.356 49.06,24.392L49.06,25.012C49.06,25.355 49.287,25.542 49.514,25.644C49.8,25.773 50.134,25.773 50.42,25.644C50.647,25.542 50.873,25.355 50.873,25.012L50.873,24.392C50.873,24.356 50.909,24.329 50.946,24.338C51.172,24.393 51.842,24.72 51.842,26.664L51.653,26.664C51.536,26.664 51.441,26.756 51.441,26.868L51.441,26.998C51.441,27.11 51.536,27.202 51.653,27.202Z" style="fill:white;"/>
    <g transform="matrix(0.925835,0,0,0.925835,4.74653,5.1072)">
        <circle cx="46.718" cy="46.329" r="17.282" style="fill:rgb(41,41,56);"/>
    </g>
    <g id="dolomite-symbol-white--1-.svg" serif:id="dolomite-symbol-white (1).svg" transform="matrix(0.100968,0,0,0.100968,48,48)">
        <g transform="matrix(1,0,0,1,-142,-142)">
            <clipPath id="_clip1">
                <rect x="0" y="0" width="284" height="284"/>
            </clipPath>
            <g clip-path="url(#_clip1)">
                <g transform="matrix(1,0,0,1,8,8)">
                    <g id="Page-1">
                        <g id="Group-2">
                            <g id="dolomite-logo-svg-white">
                                <path id="svg_1" d="M0,134C0,59.967 59.967,0 134,0C208.033,0 268,59.967 268,134C268,208.033 208.033,268 134,268C59.967,268 0,208.033 0,134Z" style="fill:rgb(15,255,255);fill-opacity:0;fill-rule:nonzero;stroke:white;stroke-width:15px;"/>
                                <path id="svg_8" d="M4,96.885C29.203,89.619 24.589,87.89 29.913,89.619C35.238,91.349 126.44,261.562 127,264" style="fill:rgb(15,255,255);fill-opacity:0;fill-rule:nonzero;stroke:white;stroke-width:15px;"/>
                                <path id="svg_9" d="M30,91C33.14,91.646 68.35,113.35 72.22,118.317C76.09,123.284 81.367,139.248 85.589,142.441C89.811,145.634 93.681,144.57 97.551,143.151C101.422,141.732 114.439,124.348 117.958,121.865C121.476,119.381 125.698,120.8 127.809,124.703C129.92,128.605 195.399,246.264 198,251" style="fill:rgb(15,255,255);fill-opacity:0;fill-rule:nonzero;stroke:white;stroke-width:15px;"/>
                                <path id="svg_10" d="M120,123L110,232L120,123Z" style="fill:rgb(15,255,255);fill-rule:nonzero;stroke:white;stroke-width:15px;"/>
                                <path id="svg_12" d="M141,144.361C144.898,141.53 145.252,142.945 147.378,140.468C149.504,137.991 150.213,131.975 151.276,128.436C152.339,124.897 156.591,125.958 159.426,127.02C162.26,128.082 165.095,129.497 167.576,133.036C170.056,136.575 225.333,201.338 231.357,204.169C237.381,207 238.1,206.379 245,207" style="fill:rgb(15,255,255);fill-opacity:0;fill-rule:nonzero;stroke:white;stroke-width:15px;"/>
                            </g>
                        </g>
                    </g>
                </g>
            </g>
        </g>
    </g>
</svg>
